<svg width="100" height="100" viewBox="0 0 100 100" fill="none" xmlns="http://www.w3.org/2000/svg">
    <path d="M60.6003 16.65C45.4003 16.65 32.7003 27.1 29.2503 41.25C28.9503 41.25 28.6503 41.25 28.3003 41.2C17.2503 41.2 8.30029 50.15 8.30029 61.2C8.30029 66.5 10.4003 71.6 14.1503 75.3C17.9003 79.05 23.0003 81.15 28.3003 81.15C33.6003 81.15 38.7003 79.05 42.4503 75.25C45.6003 72.1 47.3503 67.9 47.8503 63.25L40.6003 62.7C38.9503 62.5 38.4503 61.25 39.4503 59.95L51.7003 44.8C52.7003 43.5 54.0503 43.65 54.7003 45.15L61.6503 62.15C62.3003 63.7 61.5003 64.75 59.8503 64.55L54.4503 64.05C53.8503 69.7 51.3003 74.65 47.7503 78.6C51.8003 80.35 56.1503 81.25 60.6003 81.25C78.4503 81.25 92.9003 66.8 92.9003 48.95C92.9003 31.1 78.4503 16.65 60.6003 16.65Z" fill="#FF6A00"/>
</svg>
